<svg width="601" height="601" viewBox="0 0 601 601" fill="none" xmlns="http://www.w3.org/2000/svg">
<path d="M540.265 168.183V256.57H584.458V168.183C584.46 156.178 582.017 144.299 577.277 133.269C572.537 122.24 565.6 112.292 556.889 104.031C548.178 95.7712 537.875 89.372 526.61 85.2242C515.344 81.0764 503.352 79.2669 491.364 79.9062C468.283 81.6103 446.736 92.1066 431.166 109.231C415.596 126.355 407.191 148.8 407.684 171.939V433.344C407.693 439.356 406.475 445.307 404.105 450.832C401.735 456.357 398.263 461.34 393.9 465.477C389.538 469.614 384.377 472.818 378.734 474.891C373.092 476.965 367.085 477.866 361.082 477.538C349.357 476.28 338.54 470.642 330.793 461.751C323.045 452.861 318.94 441.375 319.297 429.588V344.957C319.297 327.376 312.313 310.515 299.881 298.083C287.449 285.651 270.588 278.667 253.006 278.667H230.91C225.049 278.667 219.429 280.995 215.285 285.139C211.141 289.283 208.813 294.903 208.813 300.764C208.813 306.624 211.141 312.244 215.285 316.388C219.429 320.532 225.049 322.86 230.91 322.86H253.006C258.867 322.86 264.487 325.188 268.631 329.332C272.775 333.476 275.103 339.097 275.103 344.957V429.588C274.581 452.739 282.967 475.206 298.53 492.353C314.094 509.499 335.647 520.016 358.739 521.732H363.49C386.154 521.799 407.964 513.088 424.345 497.425C433.023 489.156 439.937 479.216 444.669 468.202C449.401 457.189 451.853 445.331 451.877 433.344V171.939C451.521 160.153 455.626 148.666 463.373 139.776C471.12 130.886 481.938 125.248 493.663 123.989C499.666 123.662 505.672 124.562 511.315 126.636C516.958 128.71 522.119 131.913 526.481 136.05C530.843 140.187 534.316 145.17 536.686 150.695C539.056 156.22 540.274 162.171 540.265 168.183Z" fill="#649BE1"/>
<path d="M577.249 286.639C581.981 275.625 584.434 263.768 584.458 251.781H540.265C540.273 257.793 539.056 263.743 536.686 269.268C534.316 274.793 530.843 279.777 526.481 283.914C522.119 288.051 516.958 291.254 511.315 293.328C505.672 295.401 499.665 296.302 493.662 295.974C481.938 294.716 471.12 289.078 463.373 280.188C455.626 271.298 451.521 259.811 451.877 248.024V163.394H407.684V248.024C407.161 271.175 415.548 293.643 431.111 310.789C446.674 327.936 468.227 338.452 491.32 340.168H496.071C518.735 340.235 540.544 331.524 556.926 315.861C565.604 307.593 572.517 297.652 577.249 286.639Z" fill="#649BE1"/>
<path d="M134.397 136.05C138.759 140.187 142.232 145.17 144.602 150.695C148.513 159.814 156.232 168.183 166.154 168.183H172.378C183.422 168.183 192.601 159.119 190.125 148.356C188.94 143.202 187.291 138.153 185.193 133.269C180.453 122.24 173.516 112.292 164.805 104.031C156.094 95.7712 145.791 89.372 134.526 85.2242C123.26 81.0764 111.268 79.2669 99.2804 79.9062C76.199 81.6103 54.6517 92.1066 39.0818 109.231C23.5119 126.355 15.1068 148.8 15.5998 171.939V413.344C15.5998 424.39 24.5541 433.344 35.5998 433.344H39.7934C50.8391 433.344 59.7934 424.39 59.7934 413.344V171.939C59.4366 160.153 63.5422 148.666 71.2893 139.776C79.0363 130.886 89.8538 125.248 101.578 123.989C107.581 123.662 113.588 124.562 119.231 126.636C124.874 128.71 130.035 131.913 134.397 136.05Z" fill="#DE5491"/>
<path d="M148.181 433.328V344.941C148.181 327.36 155.165 310.499 167.597 298.067C180.028 285.635 196.89 278.651 214.471 278.651H236.568C242.428 278.651 248.049 280.979 252.192 285.123C256.336 289.267 258.664 294.887 258.664 300.748C258.664 306.608 256.336 312.229 252.192 316.372C248.049 320.516 242.428 322.844 236.568 322.844H214.471C208.61 322.844 202.99 325.173 198.846 329.316C194.702 333.46 192.374 339.081 192.374 344.941V433.328C192.376 445.333 189.933 457.213 185.193 468.242C180.453 479.271 173.516 489.22 164.805 497.48C156.094 505.74 145.791 512.139 134.526 516.287C123.26 520.435 111.268 522.244 99.2804 521.605C76.199 519.901 54.6517 509.405 39.0818 492.281C23.5119 475.157 15.1068 452.711 15.5998 429.572V168.167H59.7934V429.572C59.4366 441.359 63.5422 452.845 71.2892 461.735C79.0363 470.626 89.8538 476.264 101.578 477.522C107.581 477.85 113.588 476.949 119.231 474.875C124.874 472.802 130.035 469.598 134.397 465.461C138.759 461.324 142.232 456.341 144.602 450.816C146.972 445.291 148.189 439.34 148.181 433.328Z" fill="url(#paint0_linear_54_197)"/>
<defs>
<linearGradient id="paint0_linear_54_197" x1="-13.7758" y1="295.632" x2="258.664" y2="290.525" gradientUnits="userSpaceOnUse">
<stop offset="0.656" stop-color="#DE5491"/>
<stop offset="1" stop-color="#649BE1"/>
</linearGradient>
</defs>
</svg>
